<?xml version="1.0" standalone="no"?>
<!DOCTYPE svg PUBLIC "-//W3C//DTD SVG 20010904//EN"
 "http://www.w3.org/TR/2001/REC-SVG-20010904/DTD/svg10.dtd">
<svg version="1.0" xmlns="http://www.w3.org/2000/svg"
 width="700.000000pt" height="700.000000pt" viewBox="0 0 700.000000 700.000000"
 preserveAspectRatio="xMidYMid meet">
<metadata>
Created by potrace 1.11, written by Peter Selinger 2001-2013
</metadata>
<g transform="translate(0.000000,700.000000) scale(0.100000,-0.100000)"
fill="#000000" stroke="none">
<path d="M4230 6377 l0 -193 193 0 192 -1 0 194 1 193 -193 0 -193 0 0 -193z"/>
<path d="M4808 5953 l-3 -98 -130 0 -130 0 -5 -155 c-3 -85 -3 -172 -1 -192
l3 -38 193 0 192 0 -1 95 -2 95 136 0 135 0 1 195 1 195 -193 0 -193 0 -3 -97z"/>
<path d="M4013 5332 c-18 -2 -33 -6 -34 -10 -4 -32 -3 -352 1 -353 3 -1 85 -2
183 -3 112 -1 177 3 178 9 7 53 2 355 -6 355 -61 3 -298 4 -322 2z"/>
<path d="M4857 5082 l-47 -3 2 -192 3 -192 190 0 190 0 1 193 1 192 -81 1
c-45 0 -110 1 -146 2 -36 1 -86 1 -113 -1z"/>
<path d="M4420 4503 l0 -193 27 -1 c34 -1 261 -1 321 0 l42 1 0 193 0 192
-195 0 -194 0 -1 -192z"/>
<path d="M4826 4058 c-121 -109 -264 -206 -441 -299 -170 -89 -495 -211 -680
-255 -38 -9 -74 -20 -78 -24 -8 -7 175 -72 233 -84 14 -2 54 -11 90 -20 36 -8
88 -18 115 -22 28 -3 59 -8 70 -10 113 -22 471 -21 592 3 16 2 37 6 48 8 320
49 675 185 995 380 104 62 271 180 310 217 14 14 32 28 41 34 29 17 103 84 98
89 -3 2 -55 -4 -115 -14 -173 -30 -254 -36 -484 -36 -195 0 -322 6 -405 20
-112 19 -137 23 -214 41 -121 28 -111 30 -175 -28z"/>
<path d="M4400 3289 c-47 -16 -119 -36 -160 -46 -41 -9 -77 -18 -80 -18 -3 -1
-16 -5 -30 -8 -14 -4 -41 -9 -60 -12 -19 -2 -44 -6 -55 -9 -19 -3 -87 -13
-150 -21 -163 -20 -603 -27 -790 -12 -102 9 -337 35 -375 42 -9 2 -40 6 -68
10 -27 3 -111 18 -186 33 -75 16 -139 26 -141 23 -6 -5 116 -124 220 -216 44
-38 82 -72 85 -75 14 -15 185 -143 250 -187 182 -124 423 -254 605 -328 50
-20 99 -40 110 -45 56 -26 354 -116 445 -134 14 -3 56 -12 93 -21 37 -8 82
-17 100 -20 18 -3 43 -8 57 -10 57 -11 262 -36 355 -43 124 -9 603 -8 705 1
122 11 241 25 280 32 14 3 45 7 70 10 25 3 79 12 120 20 41 8 90 17 107 20 18
3 63 12 100 21 38 9 75 17 84 19 25 5 233 66 236 69 2 2 -54 18 -124 36 -166
43 -365 109 -529 176 -120 49 -304 131 -346 154 -9 5 -57 31 -105 56 -138 74
-216 122 -443 274 -36 24 -67 46 -70 49 -3 4 -25 22 -50 41 -25 18 -74 59
-110 90 l-65 57 -85 -28z"/>
<path d="M670 2994 c18 -32 52 -90 76 -127 24 -37 44 -69 44 -72 0 -5 166
-240 219 -310 302 -395 646 -729 1052 -1021 103 -74 412 -274 424 -274 2 0 28
-14 57 -31 127 -75 425 -218 618 -296 159 -65 558 -202 634 -218 11 -2 93 -23
181 -45 143 -37 201 -50 285 -66 14 -3 57 -11 95 -19 124 -24 327 -55 465 -70
30 -4 66 -8 80 -10 14 -2 59 -7 100 -10 41 -4 93 -8 115 -10 195 -17 685 -24
815 -12 30 3 60 6 65 6 6 1 -3 8 -20 17 -345 180 -750 435 -985 621 -305 241
-408 332 -640 563 -223 222 -419 449 -558 647 l-66 94 -75 -8 c-99 -10 -479
-10 -606 0 -94 8 -115 10 -205 22 -19 3 -55 8 -80 11 -77 9 -168 23 -250 39
-60 12 -77 16 -105 21 -83 15 -261 58 -399 96 -59 16 -115 31 -125 33 -40 8
-409 132 -536 180 -178 68 -461 188 -590 251 -55 27 -104 51 -109 53 -5 2 5
-23 24 -55z"/>
</g>
</svg>
