<svg id="Capa_1" data-name="Capa 1" xmlns="http://www.w3.org/2000/svg" xmlns:xlink="http://www.w3.org/1999/xlink" viewBox="0 0 80 80"><defs><style>.cls-1{fill:url(#linear-gradient);}.cls-2{fill:url(#linear-gradient-2);}.cls-3{fill:url(#linear-gradient-3);}.cls-4{fill:url(#linear-gradient-4);}.cls-5{fill:url(#linear-gradient-5);}.cls-6{fill:url(#linear-gradient-6);}.cls-7{fill:url(#linear-gradient-7);}.cls-8{fill:url(#linear-gradient-8);}</style><linearGradient id="linear-gradient" x1="15.53" y1="40" x2="64.47" y2="40" gradientUnits="userSpaceOnUse"><stop offset="0" stop-color="#8cc63f"/><stop offset="1" stop-color="#006837"/></linearGradient><linearGradient id="linear-gradient-2" x1="38.78" y1="48.24" x2="41.22" y2="48.24" xlink:href="#linear-gradient"/><linearGradient id="linear-gradient-3" x1="24.95" y1="31.57" x2="55.05" y2="31.57" xlink:href="#linear-gradient"/><linearGradient id="linear-gradient-4" x1="40.81" y1="31.57" x2="43.09" y2="31.57" xlink:href="#linear-gradient"/><linearGradient id="linear-gradient-5" x1="33.87" y1="31.57" x2="36.15" y2="31.57" xlink:href="#linear-gradient"/><linearGradient id="linear-gradient-6" x1="37.34" y1="31.57" x2="39.62" y2="31.57" xlink:href="#linear-gradient"/><linearGradient id="linear-gradient-7" x1="30.4" y1="31.57" x2="32.68" y2="31.57" xlink:href="#linear-gradient"/><linearGradient id="linear-gradient-8" x1="44.28" y1="31.57" x2="46.57" y2="31.57" xlink:href="#linear-gradient"/></defs><title>Mesa de trabajo 5 copia 3</title><path class="cls-1" d="M61.5,18.2h-43a3,3,0,0,0-3,3V50.86a3,3,0,0,0,3,3H33.22V56a3.56,3.56,0,0,1-3.56,3.56H26.41a1.14,1.14,0,0,0,0,2.28H53.58a1.14,1.14,0,1,0,0-2.28H50.34A3.56,3.56,0,0,1,46.78,56V53.82H61.5a3,3,0,0,0,3-3V43.8s0,0,0-.06V21.17A3,3,0,0,0,61.5,18.2ZM34.29,59.52A5.81,5.81,0,0,0,35.5,56V53.82h9V56a5.81,5.81,0,0,0,1.21,3.56ZM62.19,43.8v7.05a.68.68,0,0,1-.68.68h-43a.69.69,0,0,1-.69-.68V44.94H59.06a1.14,1.14,0,1,0,0-2.28H17.81V21.17a.69.69,0,0,1,.69-.68h43a.69.69,0,0,1,.68.68Z"/><circle class="cls-2" cx="40" cy="48.24" r="1.22"/><path class="cls-3" d="M51.06,26.38H28.94a4,4,0,0,0-4,4v2.41a4,4,0,0,0,4,4H51.06a4,4,0,0,0,4-4V30.37A4,4,0,0,0,51.06,26.38Zm1.71,6.4a1.71,1.71,0,0,1-1.71,1.71H28.94a1.71,1.71,0,0,1-1.71-1.71V30.37a1.71,1.71,0,0,1,1.71-1.71H51.06a1.71,1.71,0,0,1,1.71,1.71v2.41Z"/><path class="cls-4" d="M42,30.43a1.14,1.14,0,1,0,1.14,1.14A1.14,1.14,0,0,0,42,30.43Z"/><path class="cls-5" d="M35,30.43a1.14,1.14,0,1,0,1.14,1.14A1.14,1.14,0,0,0,35,30.43Z"/><path class="cls-6" d="M38.48,30.43a1.14,1.14,0,1,0,1.14,1.14A1.14,1.14,0,0,0,38.48,30.43Z"/><path class="cls-7" d="M31.54,30.43a1.14,1.14,0,1,0,1.14,1.14A1.14,1.14,0,0,0,31.54,30.43Z"/><path class="cls-8" d="M45.42,30.43a1.14,1.14,0,1,0,1.14,1.14A1.14,1.14,0,0,0,45.42,30.43Z"/></svg>