<svg id="Capa_1" data-name="Capa 1" xmlns="http://www.w3.org/2000/svg" xmlns:xlink="http://www.w3.org/1999/xlink" viewBox="0 0 80 80"><defs><style>.cls-1{fill:url(#Degradado_sin_nombre_9);}.cls-2{fill:url(#Degradado_sin_nombre_9-2);}.cls-3{fill:url(#Degradado_sin_nombre_9-3);}.cls-4{fill:url(#Degradado_sin_nombre_9-4);}</style><linearGradient id="Degradado_sin_nombre_9" x1="10.75" y1="72" x2="10.75" y2="24" gradientUnits="userSpaceOnUse"><stop offset="0" stop-color="#c1272d"/><stop offset="1" stop-color="#e74c3c"/></linearGradient><linearGradient id="Degradado_sin_nombre_9-2" x1="30.25" x2="30.25" y2="8" xlink:href="#Degradado_sin_nombre_9"/><linearGradient id="Degradado_sin_nombre_9-3" x1="49.75" x2="49.75" xlink:href="#Degradado_sin_nombre_9"/><linearGradient id="Degradado_sin_nombre_9-4" x1="69.25" x2="69.25" xlink:href="#Degradado_sin_nombre_9"/></defs><title>Mesa de trabajo 5 copia 5</title><path class="cls-1" d="M9.25,24V72a1.5,1.5,0,0,0,3,0V24a1.5,1.5,0,0,0-3,0Z"/><path class="cls-2" d="M28.75,8V72a1.5,1.5,0,0,0,3,0V8a1.5,1.5,0,0,0-3,0Z"/><path class="cls-3" d="M48.25,24V72a1.5,1.5,0,0,0,3,0V24a1.5,1.5,0,0,0-3,0Z"/><path class="cls-4" d="M67.75,24V72a1.5,1.5,0,0,0,3,0V24a1.5,1.5,0,0,0-3,0Z"/></svg>