<svg id="Capa_1" data-name="Capa 1" xmlns="http://www.w3.org/2000/svg" xmlns:xlink="http://www.w3.org/1999/xlink" viewBox="0 0 80 80"><defs><style>.cls-1{fill:url(#linear-gradient);}.cls-2{fill:url(#linear-gradient-2);}.cls-3{fill:url(#linear-gradient-3);}.cls-4{fill:url(#linear-gradient-4);}.cls-5{fill:url(#linear-gradient-5);}.cls-6{fill:url(#linear-gradient-6);}.cls-7{fill:url(#linear-gradient-7);}.cls-8{fill:url(#linear-gradient-8);}.cls-9{fill:url(#linear-gradient-9);}</style><linearGradient id="linear-gradient" x1="45.23" y1="62.67" x2="57" y2="62.67" gradientUnits="userSpaceOnUse"><stop offset="0" stop-color="#f7931e"/><stop offset="1" stop-color="#f15a24"/></linearGradient><linearGradient id="linear-gradient-2" x1="22.17" y1="62.67" x2="33.94" y2="62.67" xlink:href="#linear-gradient"/><linearGradient id="linear-gradient-3" x1="22.17" y1="40.23" y2="40.23" xlink:href="#linear-gradient"/><linearGradient id="linear-gradient-4" x1="38.41" y1="20.89" x2="40.76" y2="20.89" xlink:href="#linear-gradient"/><linearGradient id="linear-gradient-5" x1="33.19" y1="31.31" x2="45.98" y2="31.31" xlink:href="#linear-gradient"/><linearGradient id="linear-gradient-6" x1="33.19" y1="40.69" x2="45.98" y2="40.69" xlink:href="#linear-gradient"/><linearGradient id="linear-gradient-7" x1="33.19" y1="50.08" x2="45.98" y2="50.08" xlink:href="#linear-gradient"/><linearGradient id="linear-gradient-8" x1="34.42" y1="20.89" x2="36.78" y2="20.89" xlink:href="#linear-gradient"/><linearGradient id="linear-gradient-9" x1="42.4" y1="20.89" x2="44.75" y2="20.89" xlink:href="#linear-gradient"/></defs><title>Mesa de trabajo 5 copia 2</title><path class="cls-1" d="M55.94,61.61H46.29a1.06,1.06,0,1,0,0,2.12h9.65a1.06,1.06,0,1,0,0-2.12Z"/><path class="cls-2" d="M32.88,61.61H23.23a1.06,1.06,0,1,0,0,2.12h9.65a1.06,1.06,0,1,0,0-2.12Z"/><path class="cls-3" d="M51.5,15.85a37.43,37.43,0,0,0-11.91-1.74,37.44,37.44,0,0,0-11.91,1.74c-4.54,1.59-5.5,3.62-5.5,5V39.66h0V49c0,1.43,1,3.46,5.5,5a36.35,36.35,0,0,0,10.85,1.72v3.33a3.68,3.68,0,1,0,2.12,0V55.82A36.34,36.34,0,0,0,51.5,54.09C56,52.5,57,50.47,57,49V39.66h0V20.89C57,19.47,56,17.44,51.5,15.85Zm-11.91.38c9.48,0,15.3,2.72,15.3,4.67s-5.82,4.67-15.3,4.67-15.3-2.72-15.3-4.67S30.11,16.23,39.59,16.23Zm1.56,46.44a1.56,1.56,0,1,1-1.56-1.56A1.56,1.56,0,0,1,41.15,62.67ZM54.88,49c0,1.95-5.82,4.67-15.3,4.67S24.29,51,24.29,49v-6a13.58,13.58,0,0,0,3.38,1.65,37.41,37.41,0,0,0,11.91,1.74A37.41,37.41,0,0,0,51.5,44.71a13.55,13.55,0,0,0,3.38-1.65Zm0-9.39c0,1.95-5.82,4.67-15.3,4.67s-15.3-2.72-15.3-4.67v-6a13.56,13.56,0,0,0,3.38,1.65,37.41,37.41,0,0,0,11.91,1.74A37.41,37.41,0,0,0,51.5,35.32a13.52,13.52,0,0,0,3.38-1.65Zm0-9.38c0,1.95-5.82,4.67-15.3,4.67s-15.3-2.72-15.3-4.67v-6a13.6,13.6,0,0,0,3.38,1.65,37.44,37.44,0,0,0,11.91,1.74A37.43,37.43,0,0,0,51.5,25.94a13.57,13.57,0,0,0,3.38-1.65Z"/><path class="cls-4" d="M39.59,19.72a1.18,1.18,0,1,0,1.18,1.18A1.18,1.18,0,0,0,39.59,19.72Z"/><path class="cls-5" d="M46,31a1.06,1.06,0,0,0-1.18-.92,43.48,43.48,0,0,1-5.21.3,43.43,43.43,0,0,1-5.21-.3,1.06,1.06,0,0,0-.26,2.1,45.63,45.63,0,0,0,5.46.32A45.63,45.63,0,0,0,45,32.21,1.06,1.06,0,0,0,46,31Z"/><path class="cls-6" d="M46,40.41a1.06,1.06,0,0,0-1.18-.92,43.63,43.63,0,0,1-5.21.3,43.58,43.58,0,0,1-5.21-.3,1.06,1.06,0,0,0-.26,2.1,45.63,45.63,0,0,0,5.46.32A45.64,45.64,0,0,0,45,41.59,1.06,1.06,0,0,0,46,40.41Z"/><path class="cls-7" d="M46,49.79a1.06,1.06,0,0,0-1.18-.92,43.49,43.49,0,0,1-5.21.3,43.42,43.42,0,0,1-5.21-.3,1.06,1.06,0,1,0-.26,2.1A46.78,46.78,0,0,0,45,51,1.06,1.06,0,0,0,46,49.79Z"/><path class="cls-8" d="M35.6,19.72a1.18,1.18,0,1,0,1.18,1.18A1.18,1.18,0,0,0,35.6,19.72Z"/><path class="cls-9" d="M43.57,19.72a1.18,1.18,0,1,0,1.18,1.18A1.18,1.18,0,0,0,43.57,19.72Z"/></svg>