<svg xmlns="http://www.w3.org/2000/svg" xmlns:xlink="http://www.w3.org/1999/xlink" viewBox="0 0 80 80"><defs><style>.cls-1{isolation:isolate;}.cls-10,.cls-2,.cls-3,.cls-4,.cls-5,.cls-6,.cls-7,.cls-8,.cls-9{mix-blend-mode:multiply;}.cls-2{fill:url(#linear-gradient);}.cls-3{fill:url(#linear-gradient-2);}.cls-4{fill:url(#linear-gradient-3);}.cls-5{fill:url(#linear-gradient-4);}.cls-6{fill:url(#linear-gradient-5);}.cls-7{fill:url(#linear-gradient-6);}.cls-8{fill:url(#linear-gradient-7);}.cls-9{fill:url(#linear-gradient-8);}.cls-10{fill:url(#linear-gradient-9);}.cls-11{fill:url(#linear-gradient-10);}</style><linearGradient id="linear-gradient" x1="45.6" y1="60.84" x2="50.81" y2="60.84" gradientUnits="userSpaceOnUse"><stop offset="0" stop-color="#e74c3c"/><stop offset="1" stop-color="#c1272d"/></linearGradient><linearGradient id="linear-gradient-2" x1="34.48" y1="18.24" x2="39.84" y2="18.24" xlink:href="#linear-gradient"/><linearGradient id="linear-gradient-3" x1="43.69" y1="18.8" x2="48.98" y2="18.8" xlink:href="#linear-gradient"/><linearGradient id="linear-gradient-4" x1="26.07" y1="21.46" x2="31.02" y2="21.46" xlink:href="#linear-gradient"/><linearGradient id="linear-gradient-5" x1="36.37" y1="62.21" x2="41.8" y2="62.21" xlink:href="#linear-gradient"/><linearGradient id="linear-gradient-6" x1="27.66" y1="59.74" x2="32.74" y2="59.74" xlink:href="#linear-gradient"/><linearGradient id="linear-gradient-7" x1="59.2" y1="48.21" x2="62.86" y2="48.21" xlink:href="#linear-gradient"/><linearGradient id="linear-gradient-8" x1="20.93" y1="53.88" x2="25.29" y2="53.88" xlink:href="#linear-gradient"/><linearGradient id="linear-gradient-9" x1="53.65" y1="55.88" x2="58.25" y2="55.88" xlink:href="#linear-gradient"/><linearGradient id="linear-gradient-10" x1="8.19" y1="40.12" x2="72" y2="40.12" xlink:href="#linear-gradient"/></defs><title>Mesa de trabajo 5 copia</title><g class="cls-1"><g id="Capa_1" data-name="Capa 1"><path class="cls-2" d="M48.95,59.15a21,21,0,0,1-2.41.91,1.32,1.32,0,1,0,.78,2.53,23.35,23.35,0,0,0,2.72-1,1.32,1.32,0,0,0-1.09-2.41Z"/><path class="cls-3" d="M35.8,19.76a1.34,1.34,0,0,0,.28,0,20.61,20.61,0,0,1,2.55-.38,1.32,1.32,0,0,0-.23-2.64,23.57,23.57,0,0,0-2.88.43,1.32,1.32,0,0,0,.28,2.62Z"/><path class="cls-4" d="M44.74,19.72a20.8,20.8,0,0,1,2.49.69,1.32,1.32,0,0,0,.86-2.5,23.36,23.36,0,0,0-2.81-.78,1.32,1.32,0,0,0-.55,2.59Z"/><path class="cls-5" d="M27.39,23.53a1.32,1.32,0,0,0,.78-.25,20.94,20.94,0,0,1,2.17-1.39,1.32,1.32,0,0,0-1.29-2.32,23.58,23.58,0,0,0-2.45,1.57,1.32,1.32,0,0,0,.78,2.39Z"/><path class="cls-6" d="M40.48,61h0a21.15,21.15,0,0,1-2.58-.16,1.32,1.32,0,0,0-.33,2.63,23.77,23.77,0,0,0,2.9.18h.05a1.32,1.32,0,0,0,0-2.65Z"/><path class="cls-7" d="M32,59.17A20.86,20.86,0,0,1,29.67,58a1.32,1.32,0,0,0-1.37,2.27,23.81,23.81,0,0,0,2.58,1.35A1.32,1.32,0,0,0,32,59.17Z"/><path class="cls-8" d="M61.94,45.68a1.32,1.32,0,0,0-1.67.85,20.65,20.65,0,0,1-.95,2.4,1.32,1.32,0,1,0,2.4,1.12,23.64,23.64,0,0,0,1.07-2.71A1.32,1.32,0,0,0,61.94,45.68Z"/><path class="cls-9" d="M23.34,52.05a1.32,1.32,0,1,0-2.17,1.52A23.64,23.64,0,0,0,23,55.84a1.32,1.32,0,1,0,2-1.77A21.27,21.27,0,0,1,23.34,52.05Z"/><path class="cls-10" d="M57.81,53.94a1.32,1.32,0,0,0-1.87.1,20.9,20.9,0,0,1-1.84,1.81,1.32,1.32,0,0,0,1.74,2,24,24,0,0,0,2.07-2A1.32,1.32,0,0,0,57.81,53.94Z"/><path class="cls-11" d="M71.82,36.94,61,18.15a1.32,1.32,0,0,0-1.87-.45l-.34.22a28.79,28.79,0,0,0-38.69,1.84,29.06,29.06,0,0,0-3.37,4l-1.23-.33a1.32,1.32,0,0,0-1.62.94l-5.62,21A1.32,1.32,0,0,0,9.17,47l3.53.94a28.8,28.8,0,0,0,56.51-7.81l2.18-1.42A1.32,1.32,0,0,0,71.82,36.94ZM40.43,14a26,26,0,0,1,16,5.47L52.05,22.3a1.32,1.32,0,0,0-.42,1.77l.37.64L49.73,26a4.43,4.43,0,0,1-2.84.5L36.66,23.81a3.47,3.47,0,0,0-4.13,2.27,1.27,1.27,0,0,0-.05.19,5.29,5.29,0,0,0,0,2.36l-.13,0a9.37,9.37,0,0,0-4-.18,6.7,6.7,0,0,1-2.87-.13L23,27.61l.19-.71a1.32,1.32,0,0,0-.94-1.62l-2.79-.74A26.12,26.12,0,0,1,40.43,14ZM57.06,36.39a3.87,3.87,0,0,0-2.37-1.82L36.77,29.75a2.48,2.48,0,0,1-1.72-2.84.82.82,0,0,1,.93-.54l10.49,2.78a7.09,7.09,0,0,0,4.58-.82L53.32,27,60.8,40l-3.05,1.47a3.91,3.91,0,0,0-.91-.79,3.89,3.89,0,0,0,.22-4.25ZM39.81,44l11.82,3.17a1.25,1.25,0,0,1,.6,1.42,1.24,1.24,0,0,1-1.51.87L37.73,46A1.32,1.32,0,1,0,37,48.58l11.16,3A1.26,1.26,0,0,1,48.8,53a1.23,1.23,0,0,1-1.52.87L27,48.42a6.62,6.62,0,0,1-2.39-1.2l-.16-.12a9.25,9.25,0,0,0-3.35-1.68l-2.65-.71,3.9-14.54,2.53.68a9.36,9.36,0,0,0,4,.18,6.71,6.71,0,0,1,2.87.13l22.28,6a1.26,1.26,0,0,1,.89,1.55,1.22,1.22,0,0,1-1.52.86h0L42.82,36.75a1.32,1.32,0,0,0-.69,2.56l13,3.43A1.26,1.26,0,0,1,56,44.28a1.24,1.24,0,0,1-1.51.87l-14-3.7A1.32,1.32,0,1,0,39.81,44Zm-28.68.78,4.93-18.4,4.21,1.12L15.35,45.9ZM40.43,66.27A26.19,26.19,0,0,1,15.75,48.75l.2.05a1.37,1.37,0,0,0,.34,0,1.32,1.32,0,0,0,1.28-1l.16-.6,2.66.71a6.61,6.61,0,0,1,2.39,1.2l.16.12A9.24,9.24,0,0,0,26.28,51L46.6,56.43a3.91,3.91,0,0,0,1,.13,3.89,3.89,0,0,0,3.84-4.43,3.89,3.89,0,0,0,3.44-4.29,3.88,3.88,0,0,0,3.78-3.92l3.45-1.66.35.61a1.48,1.48,0,0,0,1.87.45l2.16-1.41A26.18,26.18,0,0,1,40.43,66.27ZM64.07,40.33l-9.52-16.5,4.83-3.15,9.52,16.5Z"/></g></g></svg>