<svg xmlns="http://www.w3.org/2000/svg" xmlns:xlink="http://www.w3.org/1999/xlink" viewBox="0 0 80 80"><defs><style>.cls-1{isolation:isolate;}.cls-2{mix-blend-mode:multiply;}.cls-3{fill:url(#Degradado_sin_nombre_10);}.cls-4{fill:url(#Degradado_sin_nombre_10-2);}.cls-5{fill:url(#Degradado_sin_nombre_10-3);}.cls-6{fill:url(#Degradado_sin_nombre_10-4);}.cls-7{fill:url(#Degradado_sin_nombre_10-5);}.cls-8{fill:url(#Degradado_sin_nombre_10-6);}</style><linearGradient id="Degradado_sin_nombre_10" x1="10.47" y1="47.18" x2="69.53" y2="47.18" gradientUnits="userSpaceOnUse"><stop offset="0" stop-color="#00c6fb"/><stop offset="1" stop-color="#005bea"/></linearGradient><linearGradient id="Degradado_sin_nombre_10-2" x1="10.47" y1="30.37" x2="69.53" y2="30.37" xlink:href="#Degradado_sin_nombre_10"/><linearGradient id="Degradado_sin_nombre_10-3" x1="38.63" y1="30.37" x2="41.37" y2="30.37" xlink:href="#Degradado_sin_nombre_10"/><linearGradient id="Degradado_sin_nombre_10-4" x1="10.47" y1="56.07" x2="69.53" y2="56.07" xlink:href="#Degradado_sin_nombre_10"/><linearGradient id="Degradado_sin_nombre_10-5" x1="34.03" y1="30.37" x2="36.77" y2="30.37" xlink:href="#Degradado_sin_nombre_10"/><linearGradient id="Degradado_sin_nombre_10-6" x1="43.23" y1="30.37" x2="45.97" y2="30.37" xlink:href="#Degradado_sin_nombre_10"/></defs><title>Mesa de trabajo 5</title><g class="cls-1"><g id="Capa_1" data-name="Capa 1"><g class="cls-2"><path class="cls-3" d="M69.38,39.83a1.37,1.37,0,0,0-1.84-.61L41.67,52.15a3.76,3.76,0,0,1-3.35,0L12.46,39.22a1.37,1.37,0,1,0-1.23,2.45L37.1,54.61h0a6.52,6.52,0,0,0,5.8,0h0L68.77,41.67A1.37,1.37,0,0,0,69.38,39.83Z"/><path class="cls-4" d="M67.71,27.43,42.9,15a6.52,6.52,0,0,0-5.8,0L12.29,27.43a3.29,3.29,0,0,0,0,5.88L37.1,45.71a6.52,6.52,0,0,0,5.8,0L67.71,33.31h0a3.29,3.29,0,0,0,0-5.88Zm-1.23,3.43L41.67,43.26a3.77,3.77,0,0,1-3.35,0L13.52,30.86a.55.55,0,0,1,0-1L38.33,17.47a3.76,3.76,0,0,1,3.35,0L66.48,29.88a.55.55,0,0,1,0,1Z"/><path class="cls-5" d="M40,29a1.37,1.37,0,1,0,1.37,1.37A1.37,1.37,0,0,0,40,29Z"/><path class="cls-6" d="M69.38,48.73a1.37,1.37,0,0,0-1.84-.61L41.67,61h0a3.76,3.76,0,0,1-3.35,0h0L12.46,48.11a1.37,1.37,0,1,0-1.23,2.45L37.1,63.5h0a6.51,6.51,0,0,0,5.79,0h0L68.77,50.56A1.37,1.37,0,0,0,69.38,48.73Z"/><path class="cls-7" d="M35.4,29a1.37,1.37,0,1,0,1.37,1.37A1.37,1.37,0,0,0,35.4,29Z"/><path class="cls-8" d="M44.6,29A1.37,1.37,0,1,0,46,30.37,1.37,1.37,0,0,0,44.6,29Z"/></g></g></g></svg>