<svg id="Capa_1" data-name="Capa 1" xmlns="http://www.w3.org/2000/svg" viewBox="0 0 200 200"><defs><style>.cls-1{opacity:0.8;}.cls-2{fill:#fff;}</style></defs><title>Mesa de trabajo 9 copia</title><g class="cls-1"><path class="cls-2" d="M107,132.35c-41.73,4.58-88.49-20.18-88.49-20.18,49.06,86.2,153.6,75.66,153.6,75.66C127.63,165.36,107,132.35,107,132.35Z"/><path class="cls-2" d="M181.5,131.35c-33.57-7.79-52.85-26.57-52.85-26.57-27.27,9.93-62.76,1-62.76,1C113,155.6,181.5,131.35,181.5,131.35Z"/><path class="cls-2" d="M178.7,82.78c-21.94,4.82-38.55-.84-38.55-.84-13.27,13.49-36.66,18.16-36.66,18.16C145.18,116.24,178.7,82.78,178.7,82.78Z"/><rect class="cls-2" x="114.13" y="47.14" width="10.5" height="10.5"/><rect class="cls-2" x="126.84" y="65.38" width="11.06" height="11.06"/><rect class="cls-2" x="137.9" y="54.33" width="11.06" height="11.06"/><polygon class="cls-2" points="130.16 32.22 130.16 43.27 141.22 43.27 141.22 37.75 148.96 37.75 148.96 26.69 137.9 26.69 137.9 32.22 130.16 32.22"/><rect class="cls-2" x="121.32" y="11.77" width="11.06" height="11.06"/></g></svg>