<svg id="Capa_1" data-name="Capa 1" xmlns="http://www.w3.org/2000/svg" xmlns:xlink="http://www.w3.org/1999/xlink" viewBox="0 0 200 200"><defs><style>.cls-1{opacity:0.8;}.cls-2{fill:url(#linear-gradient);}.cls-3{fill:url(#linear-gradient-2);}.cls-4{fill:url(#linear-gradient-3);}.cls-5{fill:url(#linear-gradient-4);}.cls-6{fill:url(#linear-gradient-5);}.cls-7{fill:url(#linear-gradient-6);}.cls-8{fill:url(#linear-gradient-7);}.cls-9{fill:url(#linear-gradient-8);}</style><linearGradient id="linear-gradient" x1="77.19" y1="169.82" x2="197.41" y2="37.98" gradientUnits="userSpaceOnUse"><stop offset="0" stop-color="#0179c1"/><stop offset="1" stop-color="#06347a"/></linearGradient><linearGradient id="linear-gradient-2" x1="77.03" y1="169.68" x2="197.26" y2="37.84" xlink:href="#linear-gradient"/><linearGradient id="linear-gradient-3" x1="73.03" y1="166.03" x2="193.26" y2="34.2" xlink:href="#linear-gradient"/><linearGradient id="linear-gradient-4" x1="41.6" y1="137.64" x2="161.82" y2="5.81" xlink:href="#linear-gradient"/><linearGradient id="linear-gradient-5" x1="57.91" y1="152.51" x2="178.14" y2="20.68" xlink:href="#linear-gradient"/><linearGradient id="linear-gradient-6" x1="58.44" y1="153" x2="178.67" y2="21.17" xlink:href="#linear-gradient"/><linearGradient id="linear-gradient-7" x1="43.95" y1="139.78" x2="164.17" y2="7.95" xlink:href="#linear-gradient"/><linearGradient id="linear-gradient-8" x1="28.2" y1="125.42" x2="148.42" y2="-6.42" xlink:href="#linear-gradient"/></defs><title>Mesa de trabajo 9</title><g class="cls-1"><path class="cls-2" d="M106.49,132.85C64.77,137.43,18,112.67,18,112.67c49.06,86.2,153.6,75.66,153.6,75.66C127.13,165.86,106.49,132.85,106.49,132.85Z"/><path class="cls-3" d="M181,131.85c-33.57-7.79-52.85-26.57-52.85-26.57-27.27,9.93-62.76,1-62.76,1C112.51,156.1,181,131.85,181,131.85Z"/><path class="cls-4" d="M178.2,83.28c-21.94,4.82-38.55-.84-38.55-.84C126.38,95.93,103,100.6,103,100.6,144.68,116.74,178.2,83.28,178.2,83.28Z"/><rect class="cls-5" x="113.63" y="47.64" width="10.5" height="10.5"/><rect class="cls-6" x="126.34" y="65.88" width="11.06" height="11.06"/><rect class="cls-7" x="137.4" y="54.83" width="11.06" height="11.06"/><polygon class="cls-8" points="129.66 32.72 129.66 43.77 140.72 43.77 140.72 38.25 148.46 38.25 148.46 27.19 137.4 27.19 137.4 32.72 129.66 32.72"/><rect class="cls-9" x="120.82" y="12.27" width="11.06" height="11.06"/></g></svg>