<?xml version="1.0" encoding="utf-8"?>
<!-- Generator: Adobe Illustrator 16.0.0, SVG Export Plug-In . SVG Version: 6.00 Build 0)  -->
<!DOCTYPE svg PUBLIC "-//W3C//DTD SVG 1.1//EN" "http://www.w3.org/Graphics/SVG/1.1/DTD/svg11.dtd">
<svg version="1.1" id="Layer_1" xmlns="http://www.w3.org/2000/svg" xmlns:xlink="http://www.w3.org/1999/xlink" x="0px" y="0px"
	 width="90px" height="90px" viewBox="0 0 90 90" enable-background="new 0 0 90 90" xml:space="preserve">
<g>
	<g id="Nuva_Logo_2_">
		<path fill="#FFFFFF" d="M38.374,86.727c-0.625,0.193-1.578,0.049-2.117-0.32L7.234,66.605c-0.54-0.369-1.022-1.203-1.071-1.854
			L3.537,29.724c-0.049-0.653,0.303-1.549,0.782-1.994L30.062,3.84c0.479-0.446,1.4-0.73,2.046-0.633l34.725,5.231
			c0.646,0.097,1.442,0.642,1.771,1.208l17.563,30.43c0.327,0.564,0.398,1.527,0.161,2.135L73.502,74.917
			c-0.238,0.61-0.945,1.267-1.57,1.457L38.374,86.727L38.374,86.727z M55.887,58.346c0.625-0.191,1.331-0.848,1.57-1.455
			l5.507-14.047c0.239-0.607,0.167-1.571-0.159-2.136l-7.544-13.067c-0.327-0.566-1.122-1.109-1.77-1.206L38.58,24.186
			c-0.647-0.097-1.568,0.188-2.047,0.632l-11.054,10.26c-0.48,0.446-0.832,1.343-0.782,1.994l1.128,15.043
			c0.049,0.65,0.531,1.486,1.07,1.854l12.463,8.504c0.54,0.369,1.493,0.512,2.118,0.318L55.887,58.346L55.887,58.346z"/>
	</g>
</g>
</svg>
